<svg width="34" height="34" viewBox="0 0 34 34" fill="none" xmlns="http://www.w3.org/2000/svg">
<g id="announcement-01">
<path id="Icon" d="M31.1668 11.3336V17.0002M14.521 7.79191H9.6335C7.25327 7.79191 6.06316 7.79191 5.15403 8.25513C4.35434 8.66259 3.70418 9.31276 3.29672 10.1124C2.83349 11.0216 2.83349 12.2117 2.8335 14.5919L2.8335 16.2919C2.8335 17.6121 2.8335 18.2722 3.04917 18.7928C3.33674 19.4871 3.88832 20.0387 4.58256 20.3262C5.10325 20.5419 5.76333 20.5419 7.0835 20.5419V26.5627C7.0835 26.8916 7.0835 27.0561 7.09714 27.1946C7.22963 28.5398 8.29392 29.6041 9.63912 29.7366C9.77764 29.7502 9.94209 29.7502 10.271 29.7502C10.5999 29.7502 10.7644 29.7502 10.9029 29.7366C12.2481 29.6041 13.3124 28.5398 13.4449 27.1946C13.4585 27.0561 13.4585 26.8916 13.4585 26.5627V20.5419H14.521C17.0234 20.5419 20.0846 21.8833 22.4462 23.1707C23.824 23.9218 24.5129 24.2973 24.9641 24.2421C25.3824 24.1908 25.6988 24.003 25.944 23.6601C26.2085 23.2905 26.2085 22.5507 26.2085 21.0713V7.26248C26.2085 5.78307 26.2085 5.04336 25.944 4.67367C25.6988 4.33085 25.3824 4.143 24.9641 4.09176C24.5129 4.0365 23.824 4.41202 22.4462 5.16308C20.0846 6.45048 17.0234 7.79191 14.521 7.79191Z" stroke="#290A66" stroke-width="2" stroke-linecap="round" stroke-linejoin="round"/>
</g>
</svg>
