<svg width="26" height="27" viewBox="0 0 26 27" fill="none" xmlns="http://www.w3.org/2000/svg">
<g id="bell-01">
<path id="Icon" d="M10.2436 23.2498C10.9781 23.9241 11.9429 24.3332 12.9996 24.3332C14.0564 24.3332 15.0212 23.9241 15.7557 23.2498M19.2496 9.1665C19.2496 7.4426 18.5912 5.7893 17.4191 4.57031C16.247 3.35132 14.6572 2.6665 12.9996 2.6665C11.342 2.6665 9.75233 3.35132 8.58023 4.57031C7.40812 5.7893 6.74964 7.4426 6.74964 9.1665C6.74964 12.5142 5.93763 14.8063 5.03054 16.3224C4.2654 17.6012 3.88283 18.2406 3.89686 18.419C3.91239 18.6165 3.95262 18.6918 4.10566 18.8099C4.24387 18.9165 4.86692 18.9165 6.11303 18.9165H19.8863C21.1324 18.9165 21.7554 18.9165 21.8936 18.8099C22.0467 18.6918 22.0869 18.6165 22.1024 18.419C22.1165 18.2406 21.7339 17.6012 20.9687 16.3224C20.0617 14.8063 19.2496 12.5142 19.2496 9.1665Z" stroke="#5825BB" stroke-width="2" stroke-linecap="round" stroke-linejoin="round"/>
</g>
</svg>
