<svg width="37" height="16" viewBox="0 0 37 16" fill="none" xmlns="http://www.w3.org/2000/svg">
<path d="M27.8172 16.0099C23.3082 16.0099 20.3853 13.0879 17.5587 10.2623L15.3027 8.00631L15.303 8.00601C12.7157 5.44271 10.8878 3.89237 8.29247 3.89237C7.05807 3.89237 5.92821 4.32804 5.11093 5.11919C4.32491 5.87995 3.89211 6.90486 3.89211 8.00513C3.89211 9.10529 4.32491 10.1303 5.11093 10.8911C5.92821 11.6821 7.05807 12.1177 8.29247 12.1177C9.41247 12.1177 10.4209 11.8371 11.4781 11.22L10.5548 10.2967H8.52496C7.49808 10.2967 6.66264 9.46126 6.66264 8.43438V6.40459H11.1049C11.7898 6.40459 12.4335 6.6713 12.9178 7.15559L16.1045 10.3423C16.4153 10.6531 16.5851 11.0833 16.5706 11.5228C16.556 11.9611 16.3586 12.3779 16.0292 12.6662C12.6624 15.6127 10.2289 16.01 8.29247 16.01C3.64246 16.01 0 12.4939 0 8.00523C0 3.51658 3.64246 0.000366211 8.29247 0.000366211C12.8015 0.000366211 15.7244 2.92231 18.551 5.74798L20.8587 8.05563C23.4186 10.5884 25.2393 12.1179 27.8171 12.1179C29.0515 12.1179 30.1815 11.6822 30.9988 10.8912C31.7846 10.1304 32.2175 9.10549 32.2175 8.00523C32.2175 6.90496 31.7846 5.88005 30.9987 5.11929C30.1815 4.32824 29.0515 3.89257 27.8171 3.89257C26.1121 3.89257 24.6693 4.53251 22.8369 6.10149C22.5037 6.38674 22.0788 6.54386 21.6407 6.54386C21.1506 6.54386 20.69 6.3532 20.3438 6.0069L18.8276 4.49079L19.3604 3.99515C21.9382 1.59745 24.3629 0.000464038 27.8171 0.000464038C32.467 0.000464038 36.1096 3.51658 36.1096 8.00532C36.1097 12.4938 32.4672 16.0099 27.8172 16.0099Z" fill="url(#paint0_linear_270_250)"/>
<path d="M27.8172 16.0099C23.3082 16.0099 20.3853 13.0879 17.5587 10.2623L15.3027 8.00631L15.303 8.00601C12.7157 5.44271 10.8878 3.89237 8.29247 3.89237C7.05807 3.89237 5.92821 4.32804 5.11093 5.11919C4.32491 5.87995 3.89211 6.90486 3.89211 8.00513C3.89211 9.10529 4.32491 10.1303 5.11093 10.8911C5.92821 11.6821 7.05807 12.1177 8.29247 12.1177C9.41247 12.1177 10.4209 11.8371 11.4781 11.22L10.5548 10.2967H8.52496C7.49808 10.2967 6.66264 9.46126 6.66264 8.43438V6.40459H11.1049C11.7898 6.40459 12.4335 6.6713 12.9178 7.15559L16.1045 10.3423C16.4153 10.6531 16.5851 11.0833 16.5706 11.5228C16.556 11.9611 16.3586 12.3779 16.0292 12.6662C12.6624 15.6127 10.2289 16.01 8.29247 16.01C3.64246 16.01 0 12.4939 0 8.00523C0 3.51658 3.64246 0.000366211 8.29247 0.000366211C12.8015 0.000366211 15.7244 2.92231 18.551 5.74798L20.8587 8.05563C23.4186 10.5884 25.2393 12.1179 27.8171 12.1179C29.0515 12.1179 30.1815 11.6822 30.9988 10.8912C31.7846 10.1304 32.2175 9.10549 32.2175 8.00523C32.2175 6.90496 31.7846 5.88005 30.9987 5.11929C30.1815 4.32824 29.0515 3.89257 27.8171 3.89257C26.1121 3.89257 24.6693 4.53251 22.8369 6.10149C22.5037 6.38674 22.0788 6.54386 21.6407 6.54386C21.1506 6.54386 20.69 6.3532 20.3438 6.0069L18.8276 4.49079L19.3604 3.99515C21.9382 1.59745 24.3629 0.000464038 27.8171 0.000464038C32.467 0.000464038 36.1096 3.51658 36.1096 8.00532C36.1097 12.4938 32.4672 16.0099 27.8172 16.0099Z" fill="url(#paint1_linear_270_250)"/>
<path d="M21.6409 6.54339C22.079 6.54339 22.5039 6.38637 22.8371 6.10102C24.6694 4.53204 26.1123 3.8921 27.8173 3.8921C29.0517 3.8921 30.1817 4.32777 30.9988 5.11882C31.783 5.87791 32.2155 6.89986 32.2175 7.99716C32.2293 8.16119 32.2235 8.30884 32.1957 8.43105C33.2518 3.79652 29.0493 -1.53347 23.0789 1.19426L23.0787 1.19436C22.9999 1.23667 22.9214 1.28017 22.8432 1.32446C22.8406 1.32594 22.838 1.32732 22.8354 1.32879C22.7594 1.372 22.6838 1.41609 22.6084 1.46116C22.6034 1.46412 22.5985 1.46708 22.5934 1.47004C22.5199 1.51403 22.4467 1.55901 22.3737 1.60477C22.3669 1.60902 22.3602 1.61326 22.3534 1.6175C22.2821 1.66228 22.2112 1.70795 22.1404 1.7543C22.1316 1.76002 22.1228 1.76574 22.1141 1.77156C22.0451 1.81694 21.9765 1.8631 21.9078 1.90995C21.8972 1.91725 21.8865 1.92455 21.8758 1.93194C21.8091 1.97781 21.7424 2.02436 21.676 2.07161C21.6634 2.08059 21.6508 2.08966 21.6382 2.09864C21.5736 2.1449 21.509 2.19165 21.4446 2.23919C21.4301 2.24984 21.4156 2.26069 21.4012 2.27144C21.3387 2.3179 21.2763 2.36485 21.2139 2.41249C21.1974 2.42521 21.1808 2.43804 21.1641 2.45076C21.104 2.49702 21.0438 2.54367 20.9837 2.59112C20.9645 2.60631 20.9452 2.62179 20.9259 2.63708C20.8683 2.68285 20.8108 2.72881 20.7533 2.77556C20.7314 2.79332 20.7096 2.81137 20.6877 2.82932C20.6328 2.87429 20.5779 2.91937 20.523 2.96524C20.4977 2.98634 20.4724 3.00785 20.4471 3.02915C20.3955 3.07265 20.3438 3.11625 20.2922 3.16043C20.2626 3.18578 20.233 3.21162 20.2034 3.23717C20.1561 3.2781 20.1087 3.31894 20.0614 3.36046C20.0254 3.39203 19.9894 3.42418 19.9534 3.45604C19.9119 3.49283 19.8704 3.52932 19.8289 3.56651C19.7845 3.60626 19.74 3.6468 19.6957 3.68704C19.6622 3.71742 19.6288 3.74731 19.5952 3.77798C19.517 3.84939 19.4388 3.92159 19.3604 3.99448L18.8276 4.49012L20.3438 6.00623C20.6902 6.35273 21.1507 6.54339 21.6409 6.54339Z" fill="url(#paint2_linear_270_250)"/>
<path d="M15.1753 9.41267C14.3173 9.71745 12.4219 10.3931 11.1167 10.8583L11.4781 11.2197C10.4209 11.8368 9.41246 12.1174 8.29247 12.1174C7.05806 12.1174 5.92821 11.6817 5.11092 10.8908C4.38991 10.1928 3.96716 9.27231 3.90206 8.27551H0.00689697C0.150311 12.6338 3.73665 16.0096 8.29247 16.0096C10.2289 16.0096 12.6624 15.6123 16.0291 12.6658C16.3586 12.3774 16.5559 11.9607 16.5705 11.5225C16.5851 11.0829 16.4153 10.6527 16.1045 10.3419L15.1753 9.41267Z" fill="url(#paint3_linear_270_250)"/>
<path d="M16.1045 10.3419L12.9178 7.15518C12.4336 6.67088 11.7898 6.40417 11.1049 6.40417H6.66266L10.5548 10.2964L11.4781 11.2197C13.0661 12.8077 13.2209 14.795 11.4857 15.4915C12.3333 15.1945 13.2618 14.733 14.2866 14.0282L14.2874 14.029C14.8391 13.6495 15.4186 13.2 16.0291 12.6657C16.3585 12.3773 16.5559 11.9605 16.5705 11.5223C16.5852 11.0829 16.4153 10.6526 16.1045 10.3419Z" fill="url(#paint4_linear_270_250)"/>
<path d="M32.3377 14.7504C29.9609 16.038 27.3929 14.5894 25.3538 12.5503C23.3088 10.5053 20.8587 8.05526 20.8587 8.05526L18.5511 5.74762C15.7244 2.92194 12.8016 0 8.29254 0C6.61201 0 5.06444 0.461116 3.77155 1.25956C6.92952 -0.57198 9.56088 2.26356 11.3978 4.10052C13.2428 5.94548 15.3032 8.00585 15.3032 8.00585C15.3032 8.00585 15.3042 8.00733 15.3044 8.00762L17.5588 10.2621C20.3855 13.0878 23.3083 16.0097 27.8174 16.0097C29.4975 16.0096 31.0449 15.5486 32.3377 14.7504Z" fill="url(#paint5_linear_270_250)"/>
<defs>
<linearGradient id="paint0_linear_270_250" x1="5.91806e-05" y1="8.00505" x2="36.1097" y2="8.00505" gradientUnits="userSpaceOnUse">
<stop stop-color="#FFDE3E"/>
<stop offset="0.25" stop-color="#FF793E"/>
<stop offset="0.5" stop-color="#FF31FA"/>
<stop offset="0.751" stop-color="#8733FF"/>
<stop offset="1" stop-color="#221DFF"/>
</linearGradient>
<linearGradient id="paint1_linear_270_250" x1="5.91806e-05" y1="8.00505" x2="36.1097" y2="8.00505" gradientUnits="userSpaceOnUse">
<stop stop-color="#FFDE3E"/>
<stop offset="0.25" stop-color="#FF793E"/>
<stop offset="0.5" stop-color="#FF31FA"/>
<stop offset="0.751" stop-color="#8733FF"/>
<stop offset="1" stop-color="#221DFF"/>
</linearGradient>
<linearGradient id="paint2_linear_270_250" x1="15.4777" y1="4.44156" x2="31.4648" y2="4.44156" gradientUnits="userSpaceOnUse">
<stop offset="0.21" stop-color="#FF31FA"/>
<stop offset="0.5859" stop-color="#8733FF"/>
<stop offset="0.7322" stop-color="#5927BB"/>
<stop offset="0.8548" stop-color="#371E88"/>
<stop offset="0.9473" stop-color="#22196A"/>
<stop offset="0.999" stop-color="#1A175E"/>
</linearGradient>
<linearGradient id="paint3_linear_270_250" x1="1.63508" y1="12.1426" x2="18.1996" y2="12.1426" gradientUnits="userSpaceOnUse">
<stop offset="0.1404" stop-color="#FF31FA" stop-opacity="0"/>
<stop offset="0.4275" stop-color="#8733FF"/>
<stop offset="0.5457" stop-color="#5927BB"/>
<stop offset="0.6446" stop-color="#371E88"/>
<stop offset="0.7193" stop-color="#22196A"/>
<stop offset="0.7611" stop-color="#1A175E"/>
</linearGradient>
<linearGradient id="paint4_linear_270_250" x1="14.8623" y1="13.6381" x2="4.31136" y2="4.44211" gradientUnits="userSpaceOnUse">
<stop stop-color="#221DFF"/>
<stop offset="0.3213" stop-color="#8733FF"/>
<stop offset="0.8151" stop-color="#FF31FA"/>
<stop offset="0.9677" stop-color="#FF793E"/>
<stop offset="1" stop-color="#FFDE3E"/>
</linearGradient>
<linearGradient id="paint5_linear_270_250" x1="30.1537" y1="16.7237" x2="7.081" y2="0.0971815" gradientUnits="userSpaceOnUse">
<stop offset="0.003" stop-color="#1D254F"/>
<stop offset="0.0504" stop-color="#292658"/>
<stop offset="0.1352" stop-color="#48276F"/>
<stop offset="0.2476" stop-color="#7A2A95"/>
<stop offset="0.3818" stop-color="#BE2EC9"/>
<stop offset="0.4975" stop-color="#FF31FA"/>
<stop offset="1" stop-color="#FFDE3E"/>
</linearGradient>
</defs>
</svg>
