<svg width="825" height="366" viewBox="0 0 825 366" fill="none" xmlns="http://www.w3.org/2000/svg">
<path d="M635.543 365.774C532.524 365.774 465.746 299.017 401.165 234.458L349.623 182.916L349.629 182.909C290.518 124.345 248.756 88.9243 189.459 88.9243C161.256 88.9243 135.443 98.8781 116.77 116.953C98.8118 134.335 88.9234 157.751 88.9234 182.889C88.9234 208.024 98.8118 231.443 116.77 248.824C135.443 266.897 161.256 276.849 189.459 276.849C215.048 276.849 238.088 270.438 262.241 256.34L241.146 235.245H194.771C171.309 235.245 152.222 216.157 152.222 192.696V146.321H253.716C269.362 146.321 284.07 152.415 295.135 163.479L367.941 236.286C375.042 243.386 378.923 253.216 378.589 263.258C378.256 273.27 373.746 282.794 366.22 289.381C289.298 356.7 233.7 365.777 189.459 365.777C83.2197 365.777 0 285.444 0 182.891C0 80.3385 83.2197 0.00317383 189.459 0.00317383C292.478 0.00317383 359.256 66.7611 423.837 131.32L476.56 184.043C535.048 241.908 576.645 276.853 635.541 276.853C663.744 276.853 689.56 266.9 708.232 248.826C726.186 231.445 736.077 208.029 736.077 182.891C736.077 157.753 726.186 134.337 708.23 116.956C689.56 98.8826 663.744 88.9288 635.541 88.9288C596.587 88.9288 563.622 103.55 521.757 139.396C514.144 145.913 504.436 149.503 494.428 149.503C483.231 149.503 472.707 145.147 464.797 137.235L430.156 102.596L442.33 91.2725C501.225 36.4919 556.621 0.0054089 635.541 0.0054089C741.778 0.0054089 825 80.3384 825 182.893C825.002 285.441 741.782 365.774 635.543 365.774Z" fill="url(#paint0_linear_27_18149)"/>
<path d="M635.543 365.774C532.524 365.774 465.746 299.017 401.165 234.458L349.623 182.916L349.629 182.909C290.518 124.345 248.756 88.9243 189.459 88.9243C161.256 88.9243 135.443 98.8781 116.77 116.953C98.8118 134.335 88.9234 157.751 88.9234 182.889C88.9234 208.024 98.8118 231.443 116.77 248.824C135.443 266.897 161.256 276.849 189.459 276.849C215.048 276.849 238.088 270.438 262.241 256.34L241.146 235.245H194.771C171.309 235.245 152.222 216.157 152.222 192.696V146.321H253.716C269.362 146.321 284.07 152.415 295.135 163.479L367.941 236.286C375.042 243.386 378.923 253.216 378.589 263.258C378.256 273.27 373.746 282.794 366.22 289.381C289.298 356.7 233.7 365.777 189.459 365.777C83.2197 365.777 0 285.444 0 182.891C0 80.3385 83.2197 0.00317383 189.459 0.00317383C292.478 0.00317383 359.256 66.7611 423.837 131.32L476.56 184.043C535.048 241.908 576.645 276.853 635.541 276.853C663.744 276.853 689.56 266.9 708.232 248.826C726.186 231.445 736.077 208.029 736.077 182.891C736.077 157.753 726.186 134.337 708.23 116.956C689.56 98.8826 663.744 88.9288 635.541 88.9288C596.587 88.9288 563.622 103.55 521.757 139.396C514.144 145.913 504.436 149.503 494.428 149.503C483.231 149.503 472.707 145.147 464.797 137.235L430.156 102.596L442.33 91.2725C501.225 36.4919 556.621 0.0054089 635.541 0.0054089C741.778 0.0054089 825 80.3384 825 182.893C825.002 285.441 741.782 365.774 635.543 365.774Z" fill="url(#paint1_linear_27_18149)"/>
<path d="M494.433 149.498C504.441 149.498 514.149 145.91 521.761 139.391C563.625 103.544 596.591 88.9234 635.545 88.9234C663.748 88.9234 689.564 98.8772 708.234 116.95C726.15 134.293 736.031 157.642 736.077 182.712C736.347 186.46 736.214 189.833 735.579 192.625C759.707 86.7397 663.694 -35.0353 527.287 27.2855L527.282 27.2877C525.482 28.2545 523.688 29.2483 521.901 30.2601C521.842 30.2939 521.784 30.3255 521.723 30.3593C519.988 31.3463 518.259 32.3536 516.538 33.3835C516.423 33.4511 516.31 33.5187 516.195 33.5863C514.516 34.5914 512.842 35.619 511.174 36.6646C511.019 36.7615 510.866 36.8584 510.71 36.9553C509.083 37.9784 507.463 39.0218 505.845 40.0809C505.644 40.2116 505.444 40.3423 505.243 40.4753C503.668 41.5119 502.099 42.5665 500.531 43.6369C500.288 43.8037 500.044 43.9705 499.799 44.1395C498.275 45.1874 496.752 46.251 495.235 47.3304C494.947 47.5355 494.658 47.7428 494.37 47.9479C492.894 49.0048 491.42 50.0729 489.949 51.1591C489.617 51.4025 489.286 51.6504 488.957 51.896C487.528 52.9574 486.102 54.0301 484.678 55.1185C484.299 55.4092 483.92 55.7022 483.54 55.9929C482.165 57.0498 480.79 58.1157 479.418 59.1997C478.978 59.5467 478.537 59.9005 478.097 60.2498C476.781 61.2954 475.467 62.3455 474.154 63.4137C473.653 63.8193 473.155 64.2317 472.655 64.6419C471.4 65.6695 470.147 66.6993 468.892 67.7472C468.315 68.2295 467.736 68.7207 467.159 69.2075C465.978 70.2013 464.797 71.1973 463.619 72.2069C462.943 72.7861 462.266 73.3765 461.59 73.9601C460.509 74.8953 459.427 75.8283 458.345 76.777C457.523 77.4981 456.7 78.2328 455.878 78.9607C454.929 79.8012 453.983 80.635 453.034 81.4846C452.02 82.3927 451.003 83.3189 449.989 84.2384C449.225 84.9324 448.461 85.6153 447.695 86.3161C445.908 87.9477 444.121 89.5972 442.33 91.2626L430.156 102.586L464.797 137.225C472.711 145.142 483.233 149.498 494.433 149.498Z" fill="url(#paint2_linear_27_18149)"/>
<path d="M346.711 215.052C327.11 222.016 283.804 237.452 253.984 248.082L262.241 256.339C238.088 270.437 215.048 276.848 189.459 276.848C161.256 276.848 135.443 266.894 116.77 248.823C100.297 232.875 90.6383 211.845 89.151 189.072H0.157715C3.43431 288.645 85.3718 365.774 189.459 365.774C233.7 365.774 289.299 356.696 366.22 289.377C373.746 282.788 378.256 273.267 378.589 263.255C378.923 253.213 375.042 243.383 367.941 236.283L346.711 215.052Z" fill="url(#paint3_linear_27_18149)"/>
<path d="M367.942 236.282L295.136 163.476C284.071 152.411 269.362 146.318 253.716 146.318H152.223L241.146 235.244L262.241 256.339C298.523 292.62 302.061 338.024 262.415 353.938C281.781 347.15 302.994 336.609 326.408 320.505L326.426 320.523C339.032 311.851 352.271 301.582 366.218 289.375C373.745 282.786 378.254 273.265 378.587 263.252C378.923 253.213 375.043 243.383 367.942 236.282Z" fill="url(#paint4_linear_27_18149)"/>
<path d="M738.824 337.003C684.521 366.423 625.849 333.325 579.262 286.739C532.54 240.017 476.563 184.039 476.563 184.039L423.84 131.316C359.259 66.7579 292.481 0 189.462 0C151.066 0 115.709 10.5352 86.1699 28.7773C158.32 -13.0681 218.44 51.7157 260.409 93.6851C302.561 135.837 349.634 182.91 349.634 182.91C349.634 182.91 349.657 182.944 349.661 182.951L401.17 234.459C465.751 299.018 532.529 365.776 635.548 365.776C673.934 365.774 709.287 355.241 738.824 337.003Z" fill="url(#paint5_linear_27_18149)"/>
<defs>
<linearGradient id="paint0_linear_27_18149" x1="0.0013521" y1="182.887" x2="825.003" y2="182.887" gradientUnits="userSpaceOnUse">
<stop stop-color="#FFDE3E"/>
<stop offset="0.25" stop-color="#FF793E"/>
<stop offset="0.5" stop-color="#FF31FA"/>
<stop offset="0.751" stop-color="#8733FF"/>
<stop offset="1" stop-color="#221DFF"/>
</linearGradient>
<linearGradient id="paint1_linear_27_18149" x1="0.0013521" y1="182.887" x2="825.003" y2="182.887" gradientUnits="userSpaceOnUse">
<stop stop-color="#FFDE3E"/>
<stop offset="0.25" stop-color="#FF793E"/>
<stop offset="0.5" stop-color="#FF31FA"/>
<stop offset="0.751" stop-color="#8733FF"/>
<stop offset="1" stop-color="#221DFF"/>
</linearGradient>
<linearGradient id="paint2_linear_27_18149" x1="353.622" y1="101.477" x2="718.88" y2="101.477" gradientUnits="userSpaceOnUse">
<stop offset="0.21" stop-color="#FF31FA"/>
<stop offset="0.5859" stop-color="#8733FF"/>
<stop offset="0.7322" stop-color="#5927BB"/>
<stop offset="0.8548" stop-color="#371E88"/>
<stop offset="0.9473" stop-color="#22196A"/>
<stop offset="0.999" stop-color="#1A175E"/>
</linearGradient>
<linearGradient id="paint3_linear_27_18149" x1="37.357" y1="277.423" x2="415.809" y2="277.423" gradientUnits="userSpaceOnUse">
<stop offset="0.1404" stop-color="#FF31FA" stop-opacity="0"/>
<stop offset="0.4275" stop-color="#8733FF"/>
<stop offset="0.5457" stop-color="#5927BB"/>
<stop offset="0.6446" stop-color="#371E88"/>
<stop offset="0.7193" stop-color="#22196A"/>
<stop offset="0.7611" stop-color="#1A175E"/>
</linearGradient>
<linearGradient id="paint4_linear_27_18149" x1="339.56" y1="311.593" x2="98.5022" y2="101.49" gradientUnits="userSpaceOnUse">
<stop stop-color="#221DFF"/>
<stop offset="0.3213" stop-color="#8733FF"/>
<stop offset="0.8151" stop-color="#FF31FA"/>
<stop offset="0.9677" stop-color="#FF793E"/>
<stop offset="1" stop-color="#FFDE3E"/>
</linearGradient>
<linearGradient id="paint5_linear_27_18149" x1="688.926" y1="382.089" x2="161.781" y2="2.22037" gradientUnits="userSpaceOnUse">
<stop offset="0.003" stop-color="#1D254F"/>
<stop offset="0.0504" stop-color="#292658"/>
<stop offset="0.1352" stop-color="#48276F"/>
<stop offset="0.2476" stop-color="#7A2A95"/>
<stop offset="0.3818" stop-color="#BE2EC9"/>
<stop offset="0.4975" stop-color="#FF31FA"/>
<stop offset="1" stop-color="#FFDE3E"/>
</linearGradient>
</defs>
</svg>
