<svg width="26" height="27" viewBox="0 0 26 27" fill="none" xmlns="http://www.w3.org/2000/svg">
<g id="bell-01">
<path id="Icon" d="M10.2441 23.25C10.9786 23.9242 11.9434 24.3333 13.0001 24.3333C14.0568 24.3333 15.0217 23.9242 15.7562 23.25M19.2501 9.16663C19.2501 7.44272 18.5917 5.78942 17.4195 4.57043C16.2474 3.35145 14.6577 2.66663 13.0001 2.66663C11.3425 2.66663 9.75282 3.35145 8.58071 4.57043C7.40861 5.78942 6.75013 7.44272 6.75013 9.16663C6.75013 12.5143 5.93812 14.8064 5.03103 16.3225C4.26589 17.6013 3.88332 18.2407 3.89734 18.4191C3.91288 18.6166 3.95311 18.6919 4.10615 18.81C4.24436 18.9166 4.86741 18.9166 6.11352 18.9166H19.8867C21.1328 18.9166 21.7559 18.9166 21.8941 18.81C22.0472 18.6919 22.0874 18.6166 22.1029 18.4191C22.1169 18.2407 21.7344 17.6013 20.9692 16.3225C20.0621 14.8064 19.2501 12.5143 19.2501 9.16663Z" stroke="#5825BB" stroke-width="2" stroke-linecap="round" stroke-linejoin="round"/>
</g>
</svg>
