<svg width="27" height="27" viewBox="0 0 27 27" fill="none" xmlns="http://www.w3.org/2000/svg">
<g id="link-01">
<g id="Icon">
<path d="M14.296 20.6594L12.705 22.2504C10.5083 24.4471 6.94676 24.4471 4.75006 22.2504C2.55336 20.0537 2.55336 16.4922 4.75006 14.2955L6.34105 12.7045M20.66 14.2955L22.251 12.7045C24.4477 10.5078 24.4477 6.94621 22.251 4.74951C20.0543 2.55281 16.4927 2.55282 14.296 4.74951L12.705 6.3405M9.56301 17.4374L17.438 9.56244" stroke="#5825BB" stroke-width="2" stroke-linecap="round" stroke-linejoin="round"/>
<path d="M14.296 20.6594L12.705 22.2504C10.5083 24.4471 6.94676 24.4471 4.75006 22.2504C2.55336 20.0537 2.55336 16.4922 4.75006 14.2955L6.34105 12.7045M20.66 14.2955L22.251 12.7045C24.4477 10.5078 24.4477 6.94621 22.251 4.74951C20.0543 2.55281 16.4927 2.55282 14.296 4.74951L12.705 6.3405M9.56301 17.4374L17.438 9.56244" stroke="black" stroke-opacity="0.2" stroke-width="2" stroke-linecap="round" stroke-linejoin="round"/>
<path d="M14.296 20.6594L12.705 22.2504C10.5083 24.4471 6.94676 24.4471 4.75006 22.2504C2.55336 20.0537 2.55336 16.4922 4.75006 14.2955L6.34105 12.7045M20.66 14.2955L22.251 12.7045C24.4477 10.5078 24.4477 6.94621 22.251 4.74951C20.0543 2.55281 16.4927 2.55282 14.296 4.74951L12.705 6.3405M9.56301 17.4374L17.438 9.56244" stroke="black" stroke-opacity="0.2" stroke-width="2" stroke-linecap="round" stroke-linejoin="round"/>
</g>
</g>
</svg>
