<svg width="28" height="28" viewBox="0 0 28 28" fill="none" xmlns="http://www.w3.org/2000/svg">
<g id="phone">
<g id="Icon">
<path d="M9.77699 10.3288C10.589 12.02 11.6959 13.6051 13.0977 15.0069C14.4996 16.4088 16.0847 17.5157 17.7759 18.3277C17.9214 18.3975 17.9941 18.4325 18.0861 18.4593C18.4132 18.5546 18.8149 18.4862 19.0919 18.2878C19.1698 18.232 19.2365 18.1653 19.3699 18.0319C19.7777 17.6241 19.9817 17.4201 20.1867 17.2868C20.9601 16.784 21.9571 16.784 22.7305 17.2868C22.9356 17.4201 23.1395 17.6241 23.5474 18.0319L23.7747 18.2593C24.3947 18.8793 24.7047 19.1893 24.8731 19.5223C25.2081 20.1844 25.2081 20.9664 24.8731 21.6285C24.7047 21.9615 24.3947 22.2715 23.7747 22.8915L23.5908 23.0754C22.9729 23.6933 22.664 24.0023 22.2439 24.2382C21.7778 24.5 21.0539 24.6883 20.5194 24.6867C20.0376 24.6853 19.7083 24.5918 19.0498 24.4049C15.5108 23.4004 12.1714 21.5052 9.38544 18.7192C6.59946 15.9333 4.70424 12.5938 3.69977 9.05489C3.51287 8.39637 3.41941 8.0671 3.41798 7.58533C3.41639 7.05074 3.60464 6.32683 3.86647 5.86074C4.10242 5.44071 4.41137 5.13176 5.02926 4.51387L5.21317 4.32996C5.83319 3.70994 6.14319 3.39994 6.47614 3.23153C7.13829 2.89662 7.92027 2.89662 8.58242 3.23153C8.91537 3.39993 9.22538 3.70994 9.84539 4.32996L10.0727 4.55731C10.4806 4.96518 10.6846 5.16912 10.8179 5.37419C11.3207 6.14756 11.3207 7.14458 10.8179 7.91795C10.6846 8.12302 10.4806 8.32696 10.0727 8.73483C9.93938 8.8682 9.8727 8.93488 9.81688 9.01283C9.61853 9.28983 9.55005 9.69146 9.64539 10.0185C9.67222 10.1106 9.70715 10.1833 9.77699 10.3288Z" stroke="#5825BB" stroke-width="2" stroke-linecap="round" stroke-linejoin="round"/>
<path d="M9.77699 10.3288C10.589 12.02 11.6959 13.6051 13.0977 15.0069C14.4996 16.4088 16.0847 17.5157 17.7759 18.3277C17.9214 18.3975 17.9941 18.4325 18.0861 18.4593C18.4132 18.5546 18.8149 18.4862 19.0919 18.2878C19.1698 18.232 19.2365 18.1653 19.3699 18.0319C19.7777 17.6241 19.9817 17.4201 20.1867 17.2868C20.9601 16.784 21.9571 16.784 22.7305 17.2868C22.9356 17.4201 23.1395 17.6241 23.5474 18.0319L23.7747 18.2593C24.3947 18.8793 24.7047 19.1893 24.8731 19.5223C25.2081 20.1844 25.2081 20.9664 24.8731 21.6285C24.7047 21.9615 24.3947 22.2715 23.7747 22.8915L23.5908 23.0754C22.9729 23.6933 22.664 24.0023 22.2439 24.2382C21.7778 24.5 21.0539 24.6883 20.5194 24.6867C20.0376 24.6853 19.7083 24.5918 19.0498 24.4049C15.5108 23.4004 12.1714 21.5052 9.38544 18.7192C6.59946 15.9333 4.70424 12.5938 3.69977 9.05489C3.51287 8.39637 3.41941 8.0671 3.41798 7.58533C3.41639 7.05074 3.60464 6.32683 3.86647 5.86074C4.10242 5.44071 4.41137 5.13176 5.02926 4.51387L5.21317 4.32996C5.83319 3.70994 6.14319 3.39994 6.47614 3.23153C7.13829 2.89662 7.92027 2.89662 8.58242 3.23153C8.91537 3.39993 9.22538 3.70994 9.84539 4.32996L10.0727 4.55731C10.4806 4.96518 10.6846 5.16912 10.8179 5.37419C11.3207 6.14756 11.3207 7.14458 10.8179 7.91795C10.6846 8.12302 10.4806 8.32696 10.0727 8.73483C9.93938 8.8682 9.8727 8.93488 9.81688 9.01283C9.61853 9.28983 9.55005 9.69146 9.64539 10.0185C9.67222 10.1106 9.70715 10.1833 9.77699 10.3288Z" stroke="black" stroke-opacity="0.2" stroke-width="2" stroke-linecap="round" stroke-linejoin="round"/>
<path d="M9.77699 10.3288C10.589 12.02 11.6959 13.6051 13.0977 15.0069C14.4996 16.4088 16.0847 17.5157 17.7759 18.3277C17.9214 18.3975 17.9941 18.4325 18.0861 18.4593C18.4132 18.5546 18.8149 18.4862 19.0919 18.2878C19.1698 18.232 19.2365 18.1653 19.3699 18.0319C19.7777 17.6241 19.9817 17.4201 20.1867 17.2868C20.9601 16.784 21.9571 16.784 22.7305 17.2868C22.9356 17.4201 23.1395 17.6241 23.5474 18.0319L23.7747 18.2593C24.3947 18.8793 24.7047 19.1893 24.8731 19.5223C25.2081 20.1844 25.2081 20.9664 24.8731 21.6285C24.7047 21.9615 24.3947 22.2715 23.7747 22.8915L23.5908 23.0754C22.9729 23.6933 22.664 24.0023 22.2439 24.2382C21.7778 24.5 21.0539 24.6883 20.5194 24.6867C20.0376 24.6853 19.7083 24.5918 19.0498 24.4049C15.5108 23.4004 12.1714 21.5052 9.38544 18.7192C6.59946 15.9333 4.70424 12.5938 3.69977 9.05489C3.51287 8.39637 3.41941 8.0671 3.41798 7.58533C3.41639 7.05074 3.60464 6.32683 3.86647 5.86074C4.10242 5.44071 4.41137 5.13176 5.02926 4.51387L5.21317 4.32996C5.83319 3.70994 6.14319 3.39994 6.47614 3.23153C7.13829 2.89662 7.92027 2.89662 8.58242 3.23153C8.91537 3.39993 9.22538 3.70994 9.84539 4.32996L10.0727 4.55731C10.4806 4.96518 10.6846 5.16912 10.8179 5.37419C11.3207 6.14756 11.3207 7.14458 10.8179 7.91795C10.6846 8.12302 10.4806 8.32696 10.0727 8.73483C9.93938 8.8682 9.8727 8.93488 9.81688 9.01283C9.61853 9.28983 9.55005 9.69146 9.64539 10.0185C9.67222 10.1106 9.70715 10.1833 9.77699 10.3288Z" stroke="black" stroke-opacity="0.2" stroke-width="2" stroke-linecap="round" stroke-linejoin="round"/>
</g>
</g>
</svg>
