<svg width="14" height="16" viewBox="0 0 14 16" fill="none" xmlns="http://www.w3.org/2000/svg">
<g clip-path="url(#clip0_1183_52)">
<path d="M8.91132 7.99979V14.2208C8.94191 14.4577 8.86544 14.7103 8.68957 14.8761C8.61883 14.9493 8.5348 15.0074 8.4423 15.047C8.3498 15.0866 8.25064 15.107 8.15049 15.107C8.05034 15.107 7.95118 15.0866 7.85868 15.047C7.76618 15.0074 7.68215 14.9493 7.61141 14.8761L6.07445 13.2893C5.99105 13.2051 5.92764 13.1021 5.88917 12.9885C5.8507 12.8748 5.83822 12.7535 5.8527 12.634V7.99979H5.82976L1.42534 2.17348C1.30117 2.0089 1.24514 1.80026 1.26949 1.59316C1.29385 1.38606 1.39662 1.19733 1.55533 1.06822C1.70062 0.957689 1.86119 0.894531 2.02942 0.894531H12.7346C12.9028 0.894531 13.0634 0.957689 13.2087 1.06822C13.3674 1.19733 13.4702 1.38606 13.4945 1.59316C13.5189 1.80026 13.4629 2.0089 13.3387 2.17348L8.93426 7.99979H8.91132Z" fill="black"/>
</g>
<defs>
<clipPath id="clip0_1183_52">
<rect width="13" height="15" fill="white" transform="translate(0.5 0.5)"/>
</clipPath>
</defs>
</svg>
