<svg width="26" height="26" viewBox="0 0 26 26" fill="none" xmlns="http://www.w3.org/2000/svg">
<path d="M5.41667 14.2782V17.3224C5.41667 18.1132 5.85 18.8499 6.54333 19.2291L11.96 22.1866C12.61 22.5441 13.39 22.5441 14.04 22.1866L19.4567 19.2291C20.15 18.8499 20.5833 18.1132 20.5833 17.3224V14.2782L14.04 17.8532C13.39 18.2107 12.61 18.2107 11.96 17.8532L5.41667 14.2782ZM11.96 3.81322L2.8275 8.79656C2.08 9.20822 2.08 10.2916 2.8275 10.7032L11.96 15.6866C12.61 16.0441 13.39 16.0441 14.04 15.6866L22.75 10.9307V17.3332C22.75 17.9291 23.2375 18.4166 23.8333 18.4166C24.4292 18.4166 24.9167 17.9291 24.9167 17.3332V10.3891C24.9167 9.98822 24.7 9.63072 24.3533 9.43572L14.04 3.81322C13.7199 3.64252 13.3628 3.55322 13 3.55322C12.6373 3.55322 12.2801 3.64252 11.96 3.81322Z" fill="#5825BB"/>
</svg>
