<svg width="23" height="23" viewBox="0 0 23 23" fill="none" xmlns="http://www.w3.org/2000/svg">
<path d="M7.75516 11.5552C7.75516 9.5745 9.43458 7.9684 11.5068 7.9684C13.579 7.9684 15.2594 9.5745 15.2594 11.5552C15.2594 13.5359 13.579 15.142 11.5068 15.142C9.43458 15.142 7.75516 13.5359 7.75516 11.5552ZM5.72661 11.5552C5.72661 14.6066 8.3144 17.0801 11.5068 17.0801C14.6992 17.0801 17.287 14.6066 17.287 11.5552C17.287 8.5038 14.6992 6.03031 11.5068 6.03031C8.3144 6.03031 5.72661 8.5038 5.72661 11.5552ZM16.165 5.81124C16.1649 6.06661 16.244 6.31627 16.3924 6.52865C16.5407 6.74104 16.7516 6.90661 16.9984 7.00443C17.2452 7.10224 17.5168 7.12792 17.7788 7.0782C18.0409 7.02848 18.2816 6.9056 18.4706 6.7251C18.6596 6.5446 18.7884 6.31459 18.8406 6.06416C18.8928 5.81372 18.8662 5.5541 18.764 5.31814C18.6619 5.08217 18.4888 4.88046 18.2668 4.7385C18.0447 4.59654 17.7836 4.52071 17.5164 4.52061H17.5158C17.1577 4.52077 16.8143 4.65678 16.5611 4.89877C16.3078 5.14077 16.1653 5.46895 16.165 5.81124ZM6.95908 20.3132C5.8616 20.2655 5.26508 20.0907 4.86866 19.9431C4.34311 19.7475 3.96812 19.5146 3.57386 19.1383C3.17961 18.762 2.93556 18.4039 2.73186 17.9015C2.57733 17.5228 2.39452 16.9525 2.34463 15.9034C2.29005 14.7693 2.27916 14.4286 2.27916 11.5553C2.27916 8.68198 2.29095 8.34223 2.34463 7.20714C2.39461 6.15813 2.57877 5.58891 2.73186 5.20905C2.93646 4.70671 3.18015 4.34829 3.57386 3.97144C3.96758 3.5946 4.34221 3.36134 4.86866 3.16663C5.2649 3.01892 5.8616 2.84419 6.95908 2.7965C8.14564 2.74434 8.50207 2.73392 11.5068 2.73392C14.5116 2.73392 14.8683 2.7452 16.0559 2.7965C17.1534 2.84427 17.7489 3.0203 18.1463 3.16663C18.6719 3.36134 19.0469 3.59512 19.4411 3.97144C19.8354 4.34777 20.0785 4.70671 20.2831 5.20905C20.4376 5.58779 20.6205 6.15813 20.6703 7.20714C20.7249 8.34223 20.7358 8.68198 20.7358 11.5553C20.7358 14.4286 20.7249 14.7684 20.6703 15.9034C20.6204 16.9525 20.4367 17.5226 20.2831 17.9015C20.0785 18.4039 19.8348 18.7623 19.4411 19.1383C19.0474 19.5143 18.6719 19.7475 18.1463 19.9431C17.7501 20.0908 17.1534 20.2655 16.0559 20.3132C14.8693 20.3654 14.5129 20.3758 11.5068 20.3758C8.50072 20.3758 8.14528 20.3654 6.95908 20.3132ZM6.86588 0.860814C5.66753 0.912976 4.84867 1.0946 4.13355 1.36057C3.39295 1.63524 2.76599 2.00374 2.13948 2.60162C1.51298 3.19951 1.12845 3.79972 0.841085 4.50761C0.562819 5.19158 0.372805 5.97384 0.318232 7.11926C0.262759 8.26649 0.250061 8.63326 0.250061 11.5552C0.250061 14.4772 0.262759 14.8439 0.318232 15.9912C0.372805 17.1367 0.562819 17.9188 0.841085 18.6028C1.12845 19.3103 1.51307 19.9112 2.13948 20.5088C2.7659 21.1064 3.39295 21.4744 4.13355 21.7498C4.85002 22.0158 5.66753 22.1974 6.86588 22.2496C8.06675 22.3018 8.44984 22.3148 11.5068 22.3148C14.5638 22.3148 14.9475 22.3026 16.1477 22.2496C17.3462 22.1974 18.1645 22.0158 18.8801 21.7498C19.6202 21.4744 20.2476 21.1067 20.8741 20.5088C21.5006 19.9109 21.8844 19.3103 22.1725 18.6028C22.4508 17.9188 22.6417 17.1366 22.6954 15.9912C22.75 14.8431 22.7627 14.4772 22.7627 11.5552C22.7627 8.63326 22.75 8.26649 22.6954 7.11926C22.6408 5.97376 22.4508 5.19115 22.1725 4.50761C21.8844 3.80015 21.4997 3.20046 20.8741 2.60162C20.2486 2.00279 19.6202 1.63524 18.881 1.36057C18.1645 1.0946 17.3461 0.912116 16.1486 0.860814C14.9484 0.808652 14.5647 0.795654 11.5077 0.795654C8.45074 0.795654 8.06675 0.807791 6.86588 0.860814Z" fill="#5927BB"/>
</svg>
