<svg width="20" height="22" viewBox="0 0 20 22" fill="none" xmlns="http://www.w3.org/2000/svg">
<path d="M16.9035 5.32139C16.7575 5.24767 16.6154 5.16685 16.4777 5.07924C16.0773 4.82056 15.7102 4.51575 15.3843 4.17139C14.5689 3.25958 14.2643 2.33456 14.1522 1.68691H14.1567C14.063 1.14933 14.1017 0.801514 14.1076 0.801514H10.3935V14.8366C10.3935 15.0251 10.3935 15.2113 10.3854 15.3954C10.3854 15.4183 10.3832 15.4394 10.3818 15.464C10.3818 15.4742 10.3818 15.4847 10.3796 15.4953C10.3796 15.4979 10.3796 15.5006 10.3796 15.5032C10.3404 16.0068 10.1752 16.4933 9.89854 16.9198C9.62186 17.3464 9.24216 17.6999 8.79284 17.9494C8.32455 18.2098 7.7949 18.3463 7.25613 18.3456C5.5257 18.3456 4.12324 16.9667 4.12324 15.2637C4.12324 13.5607 5.5257 12.1818 7.25613 12.1818C7.58369 12.1815 7.90924 12.2319 8.22068 12.331L8.22519 8.63535C7.27972 8.516 6.3192 8.58943 5.40423 8.85102C4.48925 9.1126 3.63968 9.55666 2.90911 10.1552C2.26895 10.6988 1.73077 11.3473 1.31879 12.0717C1.16201 12.3359 0.570481 13.3974 0.498849 15.1202C0.453797 16.098 0.754291 17.1111 0.897555 17.5298V17.5386C0.987658 17.7852 1.33681 18.6265 1.90581 19.3358C2.36463 19.9048 2.90671 20.4046 3.5146 20.8191V20.8103L3.52361 20.8191C5.32162 22.0132 7.31515 21.9348 7.31515 21.9348C7.66024 21.9211 8.81626 21.9348 10.1291 21.3268C11.5851 20.6527 12.4141 19.6484 12.4141 19.6484C12.9437 19.0484 13.3648 18.3645 13.6593 17.6262C13.9954 16.7629 14.1076 15.7273 14.1076 15.3135V7.86751C14.1526 7.89393 14.7527 8.28181 14.7527 8.28181C14.7527 8.28181 15.6172 8.82335 16.9661 9.17601C17.9338 9.42697 19.2376 9.4798 19.2376 9.4798V5.87658C18.7808 5.92501 17.8531 5.78412 16.9035 5.32139Z" fill="#5927BB"/>
</svg>
