<svg width="23" height="19" viewBox="0 0 23 19" fill="none" xmlns="http://www.w3.org/2000/svg">
<path d="M22.1721 2.69226C21.4621 2.99809 20.7157 3.21105 19.9513 3.32588C20.3087 3.26456 20.8345 2.62072 21.0438 2.36012C21.3618 1.96703 21.6042 1.51828 21.7586 1.03667C21.7586 1.0009 21.7943 0.949804 21.7586 0.924254C21.7406 0.914415 21.7204 0.909259 21.6999 0.909259C21.6793 0.909259 21.6591 0.914415 21.6411 0.924254C20.8111 1.37414 19.9277 1.7175 19.0119 1.94622C18.98 1.95598 18.946 1.95686 18.9136 1.94876C18.8813 1.94065 18.8517 1.92388 18.8281 1.90023C18.7568 1.81527 18.6801 1.73505 18.5984 1.66007C18.2248 1.3251 17.801 1.05093 17.3425 0.847607C16.7235 0.593432 16.0549 0.483354 15.3871 0.525687C14.7392 0.566641 14.1067 0.740575 13.5288 1.03667C12.9598 1.34884 12.4596 1.77294 12.0585 2.28347C11.6365 2.80894 11.3319 3.41876 11.1651 4.07192C11.0275 4.6932 11.0119 5.33532 11.1191 5.96256C11.1191 6.06986 11.1191 6.08519 11.0272 6.06986C7.38714 5.53333 4.40054 4.24054 1.9602 1.4659C1.85299 1.34326 1.79683 1.34326 1.71004 1.4659C0.64814 3.08061 1.16378 5.63553 2.49115 6.89766C2.66984 7.06628 2.85363 7.2298 3.04763 7.38309C2.43904 7.33985 1.84531 7.17478 1.30162 6.89766C1.19951 6.83123 1.14335 6.867 1.13825 6.98963C1.12378 7.15965 1.12378 7.3306 1.13825 7.50062C1.24477 8.31543 1.5656 9.08731 2.06792 9.73732C2.57025 10.3873 3.23604 10.8921 3.99722 11.2001C4.18277 11.2797 4.37612 11.3396 4.57412 11.379C4.01071 11.49 3.43286 11.5073 2.86384 11.4301C2.74131 11.4045 2.69537 11.471 2.74131 11.5885C3.49179 13.6324 5.12038 14.2558 6.31502 14.6033C6.47839 14.6288 6.64176 14.6288 6.82556 14.6697C6.82556 14.6697 6.82555 14.6697 6.79492 14.7004C6.44266 15.3442 5.01828 15.7786 4.3648 16.0034C3.17203 16.4322 1.90032 16.5961 0.637929 16.4837C0.438822 16.4531 0.392874 16.4582 0.341821 16.4837C0.290768 16.5093 0.341821 16.5655 0.39798 16.6166C0.653245 16.7852 0.90851 16.9334 1.17399 17.0765C1.96431 17.5079 2.79984 17.8506 3.66537 18.0984C8.14783 19.335 13.1919 18.4255 16.5563 15.0785C19.2008 12.4521 20.13 8.82918 20.13 5.20119C20.13 5.06322 20.2984 4.98147 20.3954 4.90993C21.0645 4.38816 21.6544 3.77196 22.1466 3.08061C22.2318 2.97755 22.2755 2.84634 22.2691 2.7127C22.2691 2.63605 22.2691 2.65138 22.1721 2.69226Z" fill="#5927BB"/>
</svg>
