<svg width="43" height="43" viewBox="0 0 43 43" fill="none" xmlns="http://www.w3.org/2000/svg">
<rect width="43" height="43" rx="21.5" fill="white"/>
<path d="M10.7501 31.4539L12.2927 25.7183C11.0486 23.4839 10.6534 20.8767 11.1795 18.3749C11.7055 15.8731 13.1177 13.6446 15.1567 12.0984C17.1957 10.5521 19.7249 9.79184 22.2801 9.95703C24.8354 10.1222 27.2452 11.2018 29.0675 12.9976C30.8897 14.7935 32.0022 17.1852 32.2007 19.7338C32.3992 22.2824 31.6705 24.8171 30.1482 26.8726C28.6259 28.9281 26.4122 30.3666 23.9132 30.9241C21.4143 31.4816 18.7978 31.1208 16.5439 29.9078L10.7501 31.4539ZM16.8232 27.7615L17.1815 27.9737C18.8141 28.9398 20.721 29.3396 22.6049 29.1108C24.4888 28.8819 26.244 28.0374 27.597 26.7087C28.9499 25.38 29.8246 23.6418 30.0847 21.7651C30.3449 19.8883 29.9758 17.9783 29.0351 16.3327C28.0944 14.6872 26.6349 13.3985 24.884 12.6676C23.1331 11.9366 21.1891 11.8045 19.3551 12.2916C17.5211 12.7788 15.9001 13.858 14.7445 15.361C13.589 16.864 12.964 18.7064 12.9668 20.601C12.9653 22.172 13.4004 23.7126 14.2239 25.0513L14.4486 25.4212L13.5862 28.6225L16.8232 27.7615Z" fill="#5927BB"/>
<path fill-rule="evenodd" clip-rule="evenodd" d="M25.5198 22.0738C25.3097 21.9047 25.0638 21.7856 24.8007 21.7258C24.5375 21.6659 24.2642 21.6667 24.0015 21.7282C23.6067 21.8919 23.3517 22.5104 23.0966 22.8196C23.0428 22.8937 22.9638 22.9457 22.8743 22.9658C22.7849 22.9859 22.6911 22.9727 22.6107 22.9287C21.1655 22.3636 19.9541 21.3273 19.1733 19.9881C19.1067 19.9046 19.0752 19.7985 19.0854 19.6922C19.0956 19.5859 19.1467 19.4876 19.228 19.4182C19.5125 19.137 19.7214 18.7888 19.8353 18.4057C19.8606 17.9831 19.7636 17.5622 19.5559 17.1931C19.3954 16.6756 19.0898 16.2149 18.6753 15.8653C18.4616 15.7693 18.2245 15.7371 17.9929 15.7726C17.7612 15.8081 17.5447 15.9098 17.3696 16.0653C17.0656 16.3272 16.8244 16.6537 16.6636 17.021C16.5027 17.3882 16.4265 17.7868 16.4404 18.1874C16.4414 18.4124 16.4699 18.6363 16.5255 18.8543C16.6665 19.3781 16.8833 19.8786 17.1692 20.3398C17.3754 20.6931 17.6005 21.0351 17.8433 21.3645C18.6326 22.4461 19.6246 23.3645 20.7645 24.0686C21.3365 24.4264 21.9478 24.7173 22.5864 24.9356C23.2498 25.2358 23.9823 25.351 24.706 25.2691C25.1183 25.2068 25.509 25.0442 25.8436 24.7958C26.1783 24.5473 26.4466 24.2206 26.6251 23.8442C26.7299 23.6169 26.7617 23.3628 26.7162 23.1167C26.6069 22.6134 25.9327 22.3164 25.5198 22.0738Z" fill="#5927BB"/>
</svg>
